<?xml version="1.0" standalone="no"?><!DOCTYPE svg PUBLIC "-//W3C//DTD SVG 1.1//EN" "http://www.w3.org/Graphics/SVG/1.1/DTD/svg11.dtd"><svg t="1713353188347" class="icon" viewBox="0 0 1024 1024" version="1.1" xmlns="http://www.w3.org/2000/svg" p-id="18888" xmlns:xlink="http://www.w3.org/1999/xlink" width="200" height="200"><path d="M887.04 277.333333L642.56 135.04a6.826667 6.826667 0 0 0-10.24 7.04 116.693333 116.693333 0 0 1 1.066667 33.493333 123.733333 123.733333 0 0 1-117.333334 109.013334 122.026667 122.026667 0 0 1-124.16-100.266667 173.44 173.44 0 0 1 0-42.666667 6.826667 6.826667 0 0 0-10.24-6.826666L136.96 277.333333a24.746667 24.746667 0 0 0-12.373333 21.333334v283.52a6.826667 6.826667 0 0 0 11.093333 5.333333 122.026667 122.026667 0 1 1 122.24 207.36 6.826667 6.826667 0 0 0 0 12.16l241.706667 140.16a25.6 25.6 0 0 0 24.746666 0L768 807.04a6.826667 6.826667 0 0 0 0-12.16 122.026667 122.026667 0 1 1 122.24-207.36 6.826667 6.826667 0 0 0 11.093333-5.333333V298.666667a24.746667 24.746667 0 0 0-14.293333-21.333334zM725.333333 546.773333a31.146667 31.146667 0 0 1-59.946666 11.733334 29.653333 29.653333 0 0 1-28.586667 19.2 30.506667 30.506667 0 0 1-14.08-3.413334 31.146667 31.146667 0 0 1-14.08 3.413334 30.08 30.08 0 0 1-15.36-4.266667 29.653333 29.653333 0 0 1-14.933333 4.266667H576a26.453333 26.453333 0 0 1-10.666667-2.133334 56.32 56.32 0 0 1-16.213333 2.133334 64 64 0 0 1-32-9.6 31.146667 31.146667 0 0 1-51.2-9.386667 29.653333 29.653333 0 0 1-28.8 18.986667 31.146667 31.146667 0 0 1-23.466667-10.453334 73.813333 73.813333 0 0 1-36.48 10.453334h-1.706666c-27.733333-1.28-74.666667-14.293333-77.653334-85.333334v-2.56c3.413333-50.986667 30.933333-81.28 77.44-85.333333h2.986667a78.08 78.08 0 0 1 36.693333 10.026667 29.44 29.44 0 0 1 22.4-10.026667 29.866667 29.866667 0 0 1 30.72 30.933333v11.733334H469.333333a56.106667 56.106667 0 0 1 42.666667 17.706666 76.586667 76.586667 0 0 1 49.066667-17.493333 58.88 58.88 0 0 1 18.346666 2.986667 42.666667 42.666667 0 0 1-2.133333-10.666667 32.213333 32.213333 0 0 1 30.933333-34.986667h2.986667a33.066667 33.066667 0 0 1 31.573333 32v2.986667a40.533333 40.533333 0 0 1-1.706666 7.68 30.08 30.08 0 0 1 10.666666 2.56 58.026667 58.026667 0 0 1 16.853334-2.773333A53.546667 53.546667 0 0 1 725.333333 501.12z" fill="#98B3FF" p-id="18889"></path><path d="M413.653333 512q-5.76 0-8.32 7.04a29.866667 29.866667 0 0 1-28.8 20.266667c-24.746667-1.28-37.76-17.706667-39.04-49.493334 2.133333-30.08 15.36-46.506667 39.68-49.493333a33.066667 33.066667 0 0 1 26.24 13.866667 9.173333 9.173333 0 0 0 7.68 5.76c7.04-1.706667 9.386667-5.76 7.253334-11.946667a44.586667 44.586667 0 0 0-41.173334-21.333333c-35.2 2.773333-54.186667 24.32-56.746666 64 1.706667 41.6 21.333333 64 56.106666 64a44.8 44.8 0 0 0 45.013334-32.426667c0.853333-5.973333-1.706667-10.24-7.893334-10.24zM469.333333 469.333333a34.986667 34.986667 0 0 0-24.106666 9.6v-44.586666c0-5.546667-2.56-8.106667-7.893334-8.106667a7.466667 7.466667 0 0 0-8.32 8.106667v112.426666a7.253333 7.253333 0 0 0 8.32 8.32 6.826667 6.826667 0 0 0 7.893334-7.68v-42.666666a21.333333 21.333333 0 0 1 21.333333-21.333334 17.28 17.28 0 0 1 18.986667 19.2v44.373334a7.68 7.68 0 0 0 8.533333 8.32q7.68 0 7.68-8.32v-44.586667A30.293333 30.293333 0 0 0 469.333333 469.333333z m92.373334 0c-30.72 1.28-47.146667 15.573333-48.853334 42.666667s13.013333 42.666667 36.48 42.666667a30.72 30.72 0 0 0 20.266667-6.4 7.68 7.68 0 0 0 8.533333 6.4c5.546667 0 8.533333-2.56 8.533334-8.96v-58.026667c-0.426667-12.16-8.746667-18.346667-24.96-18.346667z m7.893333 49.493334c0 14.933333-6.826667 21.333333-20.266667 21.333333s-18.986667-10.24-19.413333-28.586667a28.16 28.16 0 0 1 29.866667-28.586666c7.04 0 10.24 2.986667 9.813333 10.24zM609.493333 426.666667a9.386667 9.386667 0 0 0-9.813333 10.666666 9.813333 9.813333 0 0 0 10.453333 10.24 9.813333 9.813333 0 0 0 9.813334-10.24 10.24 10.24 0 0 0-10.453334-10.666666z m0 42.666666c-5.76 0-8.32 2.56-7.893333 8.96v67.84c0 6.4 2.56 9.6 7.893333 9.6s8.32-3.2 8.32-9.6v-68.48c0.853333-6.4-2.346667-8.32-8.32-8.32z m58.88 0a42.666667 42.666667 0 0 0-22.826666 7.68 7.04 7.04 0 0 0-7.893334-7.68c-6.186667 0-8.96 2.773333-8.533333 9.6v68.48a7.466667 7.466667 0 0 0 8.533333 8.32c5.12 0 7.893333-2.773333 7.893334-8.32v-45.653333a18.773333 18.773333 0 0 1 20.053333-18.56c14.08 0 21.333333 6.4 21.333333 19.2v44.373333a7.893333 7.893333 0 0 0 8.533334 8.32 7.466667 7.466667 0 0 0 8.533333-8.32v-45.013333c0-21.546667-12.586667-32.426667-35.626667-32.426667z" fill="#2C68FF" p-id="18890"></path><path d="M833.066667 595.626667V341.333333a32.426667 32.426667 0 0 0-16-27.946666L597.333333 185.813333a92.8 92.8 0 0 0 3.413334-23.253333 88.96 88.96 0 0 0-177.92 0A92.8 92.8 0 0 0 426.666667 185.813333L207.146667 312.32A32.213333 32.213333 0 0 0 192 341.333333v256a88.746667 88.746667 0 1 0 85.333333 145.28l218.026667 125.866667a32.213333 32.213333 0 0 0 32 0L746.666667 742.613333a88.746667 88.746667 0 1 0 87.04-146.986666zM512 825.173333l-212.266667-122.453333a87.04 87.04 0 0 0-64-106.666667V347.946667l213.333334-122.666667a89.173333 89.173333 0 0 0 126.293333 0l213.333333 122.666667v247.68a87.04 87.04 0 0 0-64 106.666666z" fill="#2C68FF" p-id="18891"></path></svg>